<svg width="32" height="32" viewBox="0 0 32 32" fill="none" xmlns="http://www.w3.org/2000/svg">
<rect width="32" height="32" rx="4" fill="white"/>
<path d="M8.57143 9.14286H9.85714V10.4286H8.57143V9.14286ZM7.28571 9.14286H8.57143V10.4286H7.28571V9.14286ZM7.28571 10.4286H8.57143V11.7143H7.28571V10.4286ZM8.57143 10.4286H9.85714V11.7143H8.57143V10.4286ZM9.85714 10.4286H11.1429V11.7143H9.85714V10.4286ZM9.85714 9.14286H11.1429V10.4286H9.85714V9.14286ZM11.1429 9.14286H12.4286V10.4286H11.1429V9.14286ZM12.4286 9.14286H13.7143V10.4286H12.4286V9.14286ZM12.4286 10.4286H13.7143V11.7143H12.4286V10.4286ZM11.1429 10.4286H12.4286V11.7143H11.1429V10.4286ZM12.4286 11.7143H13.7143V13H12.4286V11.7143ZM13.7143 10.4286H15V11.7143H13.7143V10.4286ZM13.7143 11.7143H15V13H13.7143V11.7143ZM13.7143 18.1429H15V19.4286H13.7143V18.1429ZM13.7143 19.4286H15V20.7143H13.7143V19.4286ZM12.4286 19.4286H13.7143V20.7143H12.4286V19.4286ZM12.4286 18.1429H13.7143V19.4286H12.4286V18.1429ZM11.1429 19.4286H12.4286V20.7143H11.1429V19.4286ZM12.4286 20.7143H13.7143V22H12.4286V20.7143ZM11.1429 20.7143H12.4286V22H11.1429V20.7143ZM9.85714 20.7143H11.1429V22H9.85714V20.7143ZM9.85714 19.4286H11.1429V20.7143H9.85714V19.4286ZM8.57143 20.7143H9.85714V22H8.57143V20.7143ZM7.28571 20.7143H8.57143V22H7.28571V20.7143ZM7.28571 19.4286H8.57143V20.7143H7.28571V19.4286ZM8.57143 19.4286H9.85714V20.7143H8.57143V19.4286ZM8.57143 18.1429H9.85714V19.4286H8.57143V18.1429ZM7.28571 18.1429H8.57143V19.4286H7.28571V18.1429ZM6 19.4286H7.28571V20.7143H6V19.4286ZM6 18.1429H7.28571V19.4286H6V18.1429ZM6 16.8571H7.28571V18.1429H6V16.8571ZM6 15.5714H7.28571V16.8571H6V15.5714ZM6 14.2857H7.28571V15.5714H6V14.2857ZM6 13H7.28571V14.2857H6V13ZM6 11.7143H7.28571V13H6V11.7143ZM7.28571 11.7143H8.57143V13H7.28571V11.7143ZM6 10.4286H7.28571V11.7143H6V10.4286ZM8.57143 11.7143H9.85714V13H8.57143V11.7143ZM7.28571 13H8.57143V14.2857H7.28571V13ZM7.28571 14.2857H8.57143V15.5714H7.28571V14.2857ZM7.28571 15.5714H8.57143V16.8571H7.28571V15.5714ZM7.28571 16.8571H8.57143V18.1429H7.28571V16.8571ZM13.7143 16.8571H15V18.1429H13.7143V16.8571ZM12.4286 16.8571H13.7143V18.1429H12.4286V16.8571ZM12.4286 15.5714H13.7143V16.8571H12.4286V15.5714ZM13.7143 15.5714H15V16.8571H13.7143V15.5714ZM13.7143 14.2857H15V15.5714H13.7143V14.2857ZM12.4286 14.2857H13.7143V15.5714H12.4286V14.2857ZM11.1429 14.2857H12.4286V15.5714H11.1429V14.2857ZM9.85714 14.2857H11.1429V15.5714H9.85714V14.2857ZM9.85714 15.5714H11.1429V16.8571H9.85714V15.5714ZM11.1429 15.5714H12.4286V16.8571H11.1429V15.5714ZM18.8605 9.14286H20.1462V10.4286H18.8605V9.14286ZM17.5748 9.14286H18.8605V10.4286H17.5748V9.14286ZM17.5748 10.4286H18.8605V11.7143H17.5748V10.4286ZM18.8605 10.4286H20.1462V11.7143H18.8605V10.4286ZM20.1462 10.4286H21.4319V11.7143H20.1462V10.4286ZM20.1462 9.14286H21.4319V10.4286H20.1462V9.14286ZM21.4319 9.14286H22.7176V10.4286H21.4319V9.14286ZM22.7176 9.14286H24.0033V10.4286H22.7176V9.14286ZM22.7176 10.4286H24.0033V11.7143H22.7176V10.4286ZM21.4319 10.4286H22.7176V11.7143H21.4319V10.4286ZM21.4319 11.7143H22.7176V13H21.4319V11.7143ZM22.7176 11.7143H24.0033V13H22.7176V11.7143ZM24.0033 10.4286H25.2891V11.7143H24.0033V10.4286ZM24.0033 11.7143H25.2891V13H24.0033V11.7143ZM24.0033 13H25.2891V14.2857H24.0033V13ZM24.0033 14.2857H25.2891V15.5714H24.0033V14.2857ZM24.0033 15.5714H25.2891V16.8571H24.0033V15.5714ZM24.0033 16.8571H25.2891V18.1429H24.0033V16.8571ZM24.0033 18.1429H25.2891V19.4286H24.0033V18.1429ZM24.0033 19.4286H25.2891V20.7143H24.0033V19.4286ZM22.7176 19.4286H24.0033V20.7143H22.7176V19.4286ZM22.7176 18.1429H24.0033V19.4286H22.7176V18.1429ZM22.7176 16.8571H24.0033V18.1429H22.7176V16.8571ZM22.7176 15.5714H24.0033V16.8571H22.7176V15.5714ZM22.7176 14.2857H24.0033V15.5714H22.7176V14.2857ZM22.7176 13H24.0033V14.2857H22.7176V13ZM21.4319 18.1429H22.7176V19.4286H21.4319V18.1429ZM21.4319 19.4286H22.7176V20.7143H21.4319V19.4286ZM22.7176 20.7143H24.0033V22H22.7176V20.7143ZM21.4319 20.7143H22.7176V22H21.4319V20.7143ZM20.1462 20.7143H21.4319V22H20.1462V20.7143ZM20.1462 19.4286H21.4319V20.7143H20.1462V19.4286ZM18.8605 20.7143H20.1462V22H18.8605V20.7143ZM17.5748 20.7143H18.8605V22H17.5748V20.7143ZM17.5748 19.4286H18.8605V20.7143H17.5748V19.4286ZM18.8605 19.4286H20.1462V20.7143H18.8605V19.4286ZM17.5748 18.1429H18.8605V19.4286H17.5748V18.1429ZM16.2891 19.4286H17.5748V20.7143H16.2891V19.4286ZM16.2891 18.1429H17.5748V19.4286H16.2891V18.1429ZM16.2891 16.8571H17.5748V18.1429H16.2891V16.8571ZM16.2891 15.5714H17.5748V16.8571H16.2891V15.5714ZM16.2891 14.2857H17.5748V15.5714H16.2891V14.2857ZM16.2891 13H17.5748V14.2857H16.2891V13ZM16.2891 11.7143H17.5748V13H16.2891V11.7143ZM17.5748 11.7143H18.8605V13H17.5748V11.7143ZM16.2891 10.4286H17.5748V11.7143H16.2891V10.4286ZM17.5748 13H18.8605V14.2857H17.5748V13ZM17.5748 14.2857H18.8605V15.5714H17.5748V14.2857ZM17.5748 15.5714H18.8605V16.8571H17.5748V15.5714ZM17.5748 16.8571H18.8605V18.1429H17.5748V16.8571ZM16.2891 20.7143H17.5748V22H16.2891V20.7143ZM16.2891 9.14286H17.5748V10.4286H16.2891V9.14286Z" fill="#5BBBFF"/>
</svg>
